<svg xmlns="http://www.w3.org/2000/svg" xmlns:xlink="http://www.w3.org/1999/xlink" width="50" zoomAndPan="magnify" viewBox="0 0 375 374.999991" height="50" preserveAspectRatio="xMidYMid meet" version="1.0"><defs><clipPath id="494af77470"><path d="M 28.066406 28.066406 L 346.933594 28.066406 L 346.933594 346.933594 L 28.066406 346.933594 Z M 28.066406 28.066406 " clip-rule="nonzero"/></clipPath><clipPath id="80a0c6d392"><path d="M 187.5 28.066406 C 99.449219 28.066406 28.066406 99.449219 28.066406 187.5 C 28.066406 275.550781 99.449219 346.933594 187.5 346.933594 C 275.550781 346.933594 346.933594 275.550781 346.933594 187.5 C 346.933594 99.449219 275.550781 28.066406 187.5 28.066406 Z M 187.5 28.066406 " clip-rule="nonzero"/></clipPath><linearGradient x1="-0.000000938892" gradientTransform="matrix(1.245571, 0, 0, 1.245571, 28.066954, 28.066959)" y1="128" x2="256.000001" gradientUnits="userSpaceOnUse" y2="128" id="c7f9207e29"><stop stop-opacity="1" stop-color="rgb(99.198914%, 57.598877%, 27.49939%)" offset="0"/><stop stop-opacity="1" stop-color="rgb(99.198914%, 57.476807%, 27.339172%)" offset="0.03125"/><stop stop-opacity="1" stop-color="rgb(99.198914%, 57.232666%, 27.020264%)" offset="0.0625"/><stop stop-opacity="1" stop-color="rgb(99.198914%, 56.990051%, 26.701355%)" offset="0.09375"/><stop stop-opacity="1" stop-color="rgb(99.198914%, 56.745911%, 26.382446%)" offset="0.125"/><stop stop-opacity="1" stop-color="rgb(99.198914%, 56.50177%, 26.063538%)" offset="0.15625"/><stop stop-opacity="1" stop-color="rgb(99.198914%, 56.259155%, 25.746155%)" offset="0.1875"/><stop stop-opacity="1" stop-color="rgb(99.198914%, 56.015015%, 25.427246%)" offset="0.21875"/><stop stop-opacity="1" stop-color="rgb(99.198914%, 55.770874%, 25.108337%)" offset="0.25"/><stop stop-opacity="1" stop-color="rgb(99.198914%, 55.526733%, 24.789429%)" offset="0.28125"/><stop stop-opacity="1" stop-color="rgb(99.198914%, 55.284119%, 24.47052%)" offset="0.3125"/><stop stop-opacity="1" stop-color="rgb(99.198914%, 55.039978%, 24.151611%)" offset="0.34375"/><stop stop-opacity="1" stop-color="rgb(99.198914%, 54.795837%, 23.832703%)" offset="0.375"/><stop stop-opacity="1" stop-color="rgb(99.198914%, 54.551697%, 23.513794%)" offset="0.40625"/><stop stop-opacity="1" stop-color="rgb(99.198914%, 54.309082%, 23.194885%)" offset="0.4375"/><stop stop-opacity="1" stop-color="rgb(99.198914%, 54.064941%, 22.875977%)" offset="0.46875"/><stop stop-opacity="1" stop-color="rgb(99.198914%, 53.820801%, 22.558594%)" offset="0.5"/><stop stop-opacity="1" stop-color="rgb(99.198914%, 53.57666%, 22.239685%)" offset="0.53125"/><stop stop-opacity="1" stop-color="rgb(99.198914%, 53.334045%, 21.920776%)" offset="0.5625"/><stop stop-opacity="1" stop-color="rgb(99.198914%, 53.089905%, 21.601868%)" offset="0.59375"/><stop stop-opacity="1" stop-color="rgb(99.198914%, 52.845764%, 21.282959%)" offset="0.625"/><stop stop-opacity="1" stop-color="rgb(99.198914%, 52.601624%, 20.96405%)" offset="0.65625"/><stop stop-opacity="1" stop-color="rgb(99.198914%, 52.359009%, 20.645142%)" offset="0.6875"/><stop stop-opacity="1" stop-color="rgb(99.198914%, 52.114868%, 20.326233%)" offset="0.71875"/><stop stop-opacity="1" stop-color="rgb(99.198914%, 51.870728%, 20.007324%)" offset="0.75"/><stop stop-opacity="1" stop-color="rgb(99.198914%, 51.626587%, 19.688416%)" offset="0.78125"/><stop stop-opacity="1" stop-color="rgb(99.198914%, 51.383972%, 19.371033%)" offset="0.8125"/><stop stop-opacity="1" stop-color="rgb(99.198914%, 51.139832%, 19.052124%)" offset="0.84375"/><stop stop-opacity="1" stop-color="rgb(99.198914%, 50.895691%, 18.733215%)" offset="0.875"/><stop stop-opacity="1" stop-color="rgb(99.198914%, 50.65155%, 18.414307%)" offset="0.90625"/><stop stop-opacity="1" stop-color="rgb(99.198914%, 50.408936%, 18.095398%)" offset="0.9375"/><stop stop-opacity="1" stop-color="rgb(99.198914%, 50.164795%, 17.776489%)" offset="0.96875"/><stop stop-opacity="1" stop-color="rgb(99.198914%, 49.920654%, 17.457581%)" offset="1"/></linearGradient><clipPath id="1cd40fa3d6"><path d="M 67 51.878906 L 308 51.878906 L 308 323.351562 L 67 323.351562 Z M 67 51.878906 " clip-rule="nonzero"/></clipPath></defs><g clip-path="url(#494af77470)"><g clip-path="url(#80a0c6d392)"><path fill="url(#c7f9207e29)" d="M 28.066406 28.066406 L 28.066406 346.933594 L 346.933594 346.933594 L 346.933594 28.066406 Z M 28.066406 28.066406 " fill-rule="nonzero"/></g></g><g clip-path="url(#1cd40fa3d6)"><path fill="#ffffff" d="M 188.609375 92.554688 C 189.53125 92.714844 195.984375 92.933594 207.96875 84.960938 C 219.410156 77.371094 227.703125 80.191406 233.234375 88.484375 C 237.464844 95.15625 239.308594 106 238.765625 117.277344 C 238.007812 127.960938 235.242188 139.617188 230.632812 148.292969 C 223.421875 161.414062 212.195312 168.574219 197.230469 160.492188 L 197.070312 160.492188 L 197.070312 160.332031 L 196.742188 160.332031 L 196.742188 160.167969 C 196.582031 160.167969 196.582031 160.167969 196.363281 160.003906 C 195.820312 159.625 195.441406 159.246094 195.0625 158.703125 C 183.242188 144.335938 192.675781 126.386719 208.183594 113.484375 C 212.25 110.175781 216.695312 107.03125 221.304688 104.425781 C 222.066406 108.65625 222.066406 113.265625 221.847656 116.25 C 221.847656 117.171875 221.6875 118.089844 221.6875 119.011719 C 219.84375 120.316406 218 121.777344 216.316406 123.082031 C 206.179688 131.59375 199.128906 142.273438 204.335938 150.027344 C 210.785156 152.792969 215.9375 148.945312 219.679688 142.273438 C 223.527344 135.28125 225.753906 125.683594 226.347656 116.628906 C 226.726562 107.789062 225.589844 99.820312 222.824219 95.589844 C 221.359375 93.367188 218.757812 92.824219 214.90625 95.425781 C 200.703125 104.863281 190.726562 105.402344 187.796875 105.1875 C 184.867188 105.347656 174.890625 105.023438 160.304688 95.589844 C 155.535156 92.28125 152.011719 93.367188 149.785156 96.511719 C 149.027344 97.59375 148.484375 98.898438 147.941406 100.359375 C 144.257812 98.515625 140.351562 96.835938 136.339844 95.589844 C 137.261719 93.367188 138.183594 91.359375 139.269531 89.679688 C 145.558594 80.246094 154.773438 76.773438 167.136719 85.070312 C 180.421875 93.582031 186.710938 92.660156 186.710938 92.660156 C 187.308594 92.335938 187.90625 92.554688 188.609375 92.554688 Z M 187.527344 51.941406 C 196.199219 51.941406 203.414062 58.933594 203.414062 67.828125 C 203.414062 76.503906 196.199219 83.496094 187.527344 83.496094 C 178.851562 83.496094 171.855469 76.503906 171.855469 67.828125 C 171.800781 58.933594 178.851562 51.941406 187.527344 51.941406 Z M 70.132812 119.664062 C 74.582031 112.289062 84.179688 109.6875 91.714844 113.917969 C 99.304688 118.363281 101.855469 127.960938 97.460938 135.496094 C 93.015625 143.089844 83.417969 145.636719 75.882812 141.246094 C 68.289062 137.015625 65.6875 127.253906 70.132812 119.664062 Z M 70.132812 255.328125 C 65.6875 247.738281 68.289062 238.140625 75.882812 233.746094 C 83.472656 229.519531 93.070312 232.066406 97.460938 239.660156 C 101.910156 247.03125 99.304688 256.847656 91.714844 261.074219 C 84.179688 265.46875 74.582031 262.867188 70.132812 255.328125 Z M 187.527344 323.050781 C 178.851562 323.050781 171.855469 316.058594 171.855469 307.382812 C 171.855469 298.707031 178.851562 291.496094 187.527344 291.496094 C 196.199219 291.496094 203.414062 298.707031 203.414062 307.382812 C 203.414062 316.058594 196.199219 323.050781 187.527344 323.050781 Z M 304.863281 255.328125 C 300.632812 262.917969 290.820312 265.46875 283.445312 261.074219 C 275.855469 256.847656 273.304688 247.03125 277.535156 239.660156 C 281.980469 232.066406 291.578125 229.519531 299.113281 233.746094 C 306.707031 238.140625 309.308594 247.738281 304.863281 255.328125 Z M 304.863281 119.664062 C 309.308594 127.253906 306.707031 137.015625 299.113281 141.246094 C 291.523438 145.691406 281.925781 143.089844 277.535156 135.496094 C 273.304688 127.90625 275.855469 118.308594 283.445312 113.917969 C 290.875 109.6875 300.632812 112.289062 304.863281 119.664062 Z M 145.230469 123.730469 C 145.394531 125.953125 145.613281 128.175781 145.992188 130.398438 C 148.378906 143.523438 154.125 154.964844 163.34375 154.203125 C 169.089844 150.136719 168.332031 143.523438 164.265625 137.230469 C 160.199219 130.398438 152.984375 123.566406 145.449219 118.578125 C 138.074219 113.808594 130.484375 110.664062 125.332031 110.988281 C 122.730469 111.152344 121.101562 112.996094 121.484375 117.820312 C 122.40625 134.792969 117.796875 143.683594 116.113281 146.234375 C 115.03125 148.617188 109.664062 157.292969 94.15625 165.046875 C 89.003906 167.8125 88.082031 171.121094 89.707031 174.644531 C 90.46875 175.945312 91.171875 177.03125 92.09375 178.332031 C 88.570312 180.554688 85.261719 183.105469 82.117188 186.085938 C 80.652344 184.082031 79.515625 182.238281 78.429688 180.339844 C 73.441406 170.199219 75.121094 160.601562 88.40625 153.933594 C 102.449219 146.773438 104.835938 140.703125 104.835938 140.703125 C 105 140.160156 105.378906 139.617188 105.757812 139.238281 C 106.300781 138.316406 109.824219 132.949219 108.902344 118.578125 C 108.144531 104.914062 114.597656 99.003906 124.574219 98.464844 C 132.488281 97.921875 142.847656 101.769531 152.28125 108.0625 C 161.335938 113.972656 170.011719 122.105469 175.164062 130.5625 C 182.917969 143.46875 183.457031 156.753906 168.875 165.644531 L 168.710938 165.808594 L 168.386719 165.808594 L 168.386719 165.96875 L 168.058594 165.96875 C 167.515625 166.351562 166.976562 166.511719 166.378906 166.511719 C 147.941406 169.441406 137.207031 152.46875 133.738281 132.570312 C 132.816406 127.417969 132.4375 122.050781 132.652344 116.683594 C 136.503906 118.144531 140.570312 120.53125 143.007812 122.210938 C 143.769531 122.644531 144.527344 123.1875 145.230469 123.730469 Z M 111.125 192.375 C 113.132812 193.296875 115.191406 194.058594 117.417969 194.980469 C 129.777344 199.425781 142.519531 200.128906 146.585938 191.835938 C 145.828125 184.839844 139.917969 182.238281 132.382812 182.398438 C 124.25 182.5625 114.867188 185.328125 106.734375 189.609375 C 98.980469 193.460938 92.527344 198.449219 90.140625 203.058594 C 89.058594 205.28125 89.980469 207.828125 94.207031 209.890625 C 109.335938 217.480469 114.703125 225.941406 116.167969 228.707031 C 117.632812 230.929688 122.457031 239.765625 121.535156 257.117188 C 121.15625 263.027344 123.761719 265.628906 127.609375 265.792969 C 128.910156 265.792969 130.375 265.792969 131.839844 265.414062 C 132 269.644531 132.597656 273.925781 133.683594 277.9375 C 131.296875 278.320312 129.074219 278.480469 126.851562 278.320312 C 115.574219 277.558594 108.035156 271.324219 108.957031 256.519531 C 109.878906 240.632812 105.8125 235.644531 105.8125 235.644531 C 105.269531 235.105469 105.054688 234.5625 104.890625 233.964844 C 104.347656 233.042969 101.367188 227.511719 88.460938 221.058594 C 76.261719 214.988281 74.417969 206.3125 79.027344 197.257812 C 82.550781 190.261719 91.011719 183.210938 100.988281 178.222656 C 110.746094 173.234375 122.1875 169.929688 132 169.710938 C 146.96875 169.332031 158.789062 175.621094 159.328125 192.59375 L 159.328125 193.242188 C 159.167969 193.785156 159.167969 194.546875 158.789062 195.085938 C 152.117188 212.601562 132 213.359375 113.023438 206.527344 C 108.035156 204.683594 103.265625 202.300781 98.816406 199.535156 C 101.960938 196.929688 106.03125 194.761719 108.792969 193.242188 C 109.445312 193.136719 110.367188 192.757812 111.125 192.375 Z M 153.527344 256.035156 C 155.371094 254.730469 157.050781 253.429688 158.679688 251.964844 C 168.820312 243.453125 175.867188 232.773438 170.878906 225.179688 C 164.210938 222.253906 159.058594 226.101562 155.371094 232.773438 C 151.683594 239.765625 149.296875 249.363281 148.917969 258.636719 C 148.378906 267.3125 149.460938 275.226562 152.226562 279.675781 C 153.691406 281.679688 156.292969 282.277344 160.144531 279.675781 C 174.347656 270.238281 184.328125 269.914062 187.472656 269.914062 C 190.238281 269.914062 200.375 270.078125 214.800781 279.675781 C 219.789062 282.820312 223.09375 281.898438 225.320312 278.589844 C 226.078125 277.503906 226.621094 276.203125 227.164062 274.738281 C 230.847656 276.746094 234.914062 278.425781 238.765625 279.511719 C 238.007812 281.734375 236.921875 283.742188 235.835938 285.585938 C 229.546875 295.019531 220.332031 298.328125 207.96875 290.195312 C 194.84375 281.519531 188.394531 282.441406 188.394531 282.441406 C 187.632812 282.601562 187.09375 282.601562 186.386719 282.441406 C 185.464844 282.441406 179.175781 282.277344 167.03125 290.195312 C 155.75 297.566406 147.292969 294.800781 141.761719 286.507812 C 137.53125 279.835938 135.6875 269.15625 136.394531 257.878906 C 136.9375 246.976562 139.703125 235.375 144.527344 226.699219 C 151.738281 213.578125 162.960938 206.582031 177.929688 214.5 L 177.929688 214.660156 L 178.089844 214.660156 L 178.417969 214.988281 L 178.578125 214.988281 L 178.578125 215.148438 C 179.121094 215.527344 179.5 215.910156 179.878906 216.234375 C 191.699219 230.601562 182.265625 248.550781 166.757812 261.457031 C 162.691406 264.980469 158.246094 267.90625 153.636719 270.511719 C 153.09375 266.445312 153.09375 261.671875 153.09375 258.691406 C 153.367188 257.929688 153.367188 256.957031 153.527344 256.035156 Z M 229.765625 251.261719 C 229.601562 249.039062 229.386719 246.816406 229.003906 244.59375 C 226.78125 231.6875 220.871094 220.246094 211.816406 220.789062 C 206.070312 225.019531 206.828125 231.46875 210.734375 237.976562 C 214.800781 244.808594 222.011719 251.640625 229.765625 256.628906 C 237.140625 261.402344 244.511719 264.382812 249.71875 264.222656 C 252.320312 264.058594 253.949219 261.996094 253.570312 257.390625 C 252.648438 240.417969 257.253906 231.363281 258.9375 228.757812 C 260.238281 226.375 265.390625 217.699219 280.898438 209.945312 C 286.265625 207.339844 286.96875 203.871094 285.34375 200.347656 C 284.800781 199.261719 283.878906 197.960938 282.957031 196.824219 C 286.480469 194.597656 289.953125 192.050781 292.933594 189.070312 C 294.398438 190.914062 295.699219 192.757812 296.621094 194.597656 C 301.609375 204.738281 299.929688 214.554688 286.644531 221.167969 C 272.601562 228.164062 270.214844 234.289062 270.214844 234.289062 C 270.050781 234.832031 269.671875 235.375 269.292969 235.972656 C 268.75 236.730469 265.441406 242.042969 266.148438 256.628906 C 267.070312 270.078125 260.402344 275.988281 250.476562 276.582031 C 242.5625 277.125 232.203125 273.277344 222.769531 267.148438 C 213.714844 261.074219 205.039062 252.941406 199.886719 244.429688 C 192.132812 231.6875 191.753906 218.402344 206.179688 209.566406 L 206.339844 209.402344 L 206.503906 209.238281 L 206.828125 209.238281 L 206.828125 209.078125 L 206.992188 209.078125 C 207.535156 208.914062 208.074219 208.699219 208.671875 208.535156 C 227.109375 205.605469 237.84375 222.742188 241.3125 242.695312 C 242.234375 247.847656 242.617188 253.214844 242.617188 258.363281 C 238.550781 256.902344 234.699219 254.679688 232.097656 252.996094 C 231.445312 252.347656 230.6875 251.804688 229.765625 251.261719 Z M 263.925781 182.777344 C 261.917969 181.855469 259.859375 180.933594 257.851562 180.175781 C 245.273438 175.566406 232.53125 175.023438 228.464844 183.160156 C 229.222656 190.152344 235.296875 192.757812 242.667969 192.59375 C 250.804688 192.429688 260.183594 189.664062 268.316406 185.597656 C 276.234375 181.53125 282.523438 176.542969 284.910156 172.152344 C 285.992188 169.765625 285.070312 167.378906 281.058594 165.15625 C 265.714844 157.566406 260.402344 149.105469 258.9375 146.503906 C 257.472656 144.117188 252.648438 135.226562 253.570312 117.875 C 253.949219 111.964844 251.34375 109.578125 247.496094 109.363281 C 246.195312 109.199219 244.730469 109.363281 243.265625 109.523438 C 243.105469 105.457031 242.507812 101.011719 241.585938 97 C 243.808594 96.835938 246.03125 96.621094 248.253906 96.835938 C 259.53125 97.378906 267.070312 103.832031 266.148438 118.632812 C 265.226562 134.304688 269.457031 139.292969 269.457031 139.292969 C 269.835938 139.835938 269.996094 140.378906 270.378906 140.972656 C 270.757812 141.894531 273.683594 147.425781 286.644531 154.09375 C 298.84375 160.167969 300.6875 168.84375 296.242188 177.734375 C 292.554688 184.730469 284.042969 191.78125 274.117188 196.769531 C 264.359375 201.757812 253.082031 205.0625 243.105469 205.445312 C 228.136719 205.605469 216.316406 199.535156 215.992188 182.5625 L 215.992188 182.398438 L 215.828125 182.398438 L 215.828125 182.074219 L 215.992188 181.910156 L 215.992188 181.75 C 215.992188 180.988281 216.15625 180.285156 216.371094 179.742188 C 223.042969 162.230469 243.15625 161.46875 262.136719 168.464844 C 267.125 170.308594 271.894531 172.53125 276.503906 175.296875 C 273.195312 177.898438 269.128906 180.285156 266.363281 181.585938 C 265.550781 182.074219 264.847656 182.398438 263.925781 182.777344 Z M 263.925781 182.777344 " fill-opacity="1" fill-rule="nonzero"/></g></svg>